P3
5 3
255
255 0 0 0 0 0 0 0 0 0 0 0 0 0 0
0 0 0 0 0 0 0 128 0 0 0 0 0 0 0
0 0 0 0 0 0 0 0 0 0 0 0 0 0 255
